<svg width="595" height="154" viewBox="0 0 595 154" fill="none" xmlns="http://www.w3.org/2000/svg">
<path d="M116 116L116 61.5C116 31.4005 91.5995 7.00003 61.5 7.00003C31.4005 7.00003 7.00003 31.4005 7.00003 61.5L7.00002 116L116 116Z" fill="#8759F2"/>
<path d="M29.9473 116C29.9473 98.0459 44.502 83.4912 62.4561 83.4912C80.4102 83.4912 94.9648 98.0459 94.9648 116L29.9473 116Z" fill="#FF3E80"/>
<path d="M29.9473 116C29.9473 133.954 44.502 148.509 62.4561 148.509C80.4102 148.509 94.9648 133.954 94.9648 116L29.9473 116Z" fill="#FFC300"/>
<path d="M61.5 72.0176C70.4771 72.0176 77.7544 64.7402 77.7544 55.7632C77.7544 46.7861 70.4771 39.5088 61.5 39.5088C52.523 39.5088 45.2456 46.7861 45.2456 55.7632C45.2456 64.7402 52.523 72.0176 61.5 72.0176Z" fill="#F5F5F7"/>
<path d="M184.856 92.176L186.152 91.24C187.784 90.28 188.936 89.8 189.608 89.8C191.096 89.8 192.704 91.144 194.432 93.832C195.488 95.512 196.016 96.856 196.016 97.864C196.016 98.872 195.68 99.712 195.008 100.384C194.384 101.056 193.64 101.656 192.776 102.184C191.912 102.712 191.072 103.216 190.256 103.696C189.488 104.176 187.88 104.8 185.432 105.568C182.984 106.336 180.608 106.72 178.304 106.72C176.048 106.72 173.744 106.432 171.392 105.856C169.088 105.232 166.688 104.224 164.192 102.832C161.744 101.392 159.536 99.664 157.568 97.648C155.6 95.584 153.968 92.968 152.672 89.8C151.424 86.584 150.8 83.104 150.8 79.36C150.8 75.616 151.424 72.232 152.672 69.208C153.92 66.136 155.504 63.6159 157.424 61.6479C159.392 59.6319 161.624 57.952 164.12 56.608C168.824 54.016 173.552 52.72 178.304 52.72C180.56 52.72 182.84 53.08 185.144 53.8C187.496 54.472 189.272 55.168 190.472 55.888L192.2 56.896C193.064 57.424 193.736 57.856 194.216 58.192C195.464 59.2 196.088 60.352 196.088 61.6479C196.088 62.896 195.584 64.216 194.576 65.608C192.704 68.2 191.024 69.496 189.536 69.496C188.672 69.496 187.448 68.968 185.864 67.912C183.848 66.28 181.16 65.464 177.8 65.464C174.68 65.464 171.608 66.544 168.584 68.704C167.144 69.76 165.944 71.248 164.984 73.168C164.024 75.088 163.544 77.272 163.544 79.72C163.544 82.12 164.024 84.28 164.984 86.2C165.944 88.12 167.168 89.632 168.656 90.736C171.584 92.848 174.632 93.904 177.8 93.904C179.288 93.904 180.68 93.712 181.976 93.328C183.32 92.944 184.28 92.56 184.856 92.176Z" fill="#4f46e5"/>
<path d="M199.667 87.064C199.667 81.304 201.683 76.552 205.715 72.808C209.747 69.064 214.355 67.192 219.539 67.192C224.723 67.192 229.307 69.064 233.291 72.808C237.275 76.504 239.267 81.232 239.267 86.992C239.267 90.976 238.235 94.528 236.171 97.648C234.107 100.72 231.587 103 228.611 104.488C225.683 105.928 222.635 106.648 219.467 106.648C216.299 106.648 213.227 105.88 210.251 104.344C207.275 102.76 204.755 100.456 202.691 97.432C200.675 94.36 199.667 90.904 199.667 87.064ZM214.715 92.248C216.251 93.4 217.811 93.976 219.395 93.976C220.979 93.976 222.563 93.376 224.147 92.176C225.731 90.976 226.523 89.2 226.523 86.848C226.523 84.496 225.779 82.744 224.291 81.592C222.803 80.44 221.195 79.864 219.467 79.864C217.739 79.864 216.131 80.464 214.643 81.664C213.155 82.864 212.411 84.64 212.411 86.992C212.411 89.296 213.179 91.048 214.715 92.248Z" fill="#4f46e5"/>
<path d="M260.767 105.856C255.919 105.856 251.887 104.032 248.671 100.384C245.503 96.688 243.919 92.2 243.919 86.92V74.32C243.919 73.168 243.943 72.328 243.991 71.8C244.087 71.272 244.303 70.648 244.639 69.9279C245.311 68.632 247.183 67.984 250.255 67.984C253.615 67.984 255.583 68.896 256.159 70.72C256.447 71.488 256.591 72.712 256.591 74.392V86.992C256.591 88.96 257.143 90.496 258.247 91.6C259.399 92.704 260.911 93.256 262.783 93.256C264.703 93.256 266.239 92.68 267.391 91.528C268.591 90.376 269.191 88.864 269.191 86.992V74.248C269.191 73.144 269.215 72.328 269.263 71.8C269.359 71.224 269.599 70.576 269.983 69.856C270.607 68.608 272.455 67.984 275.527 67.984C278.551 67.984 280.399 68.632 281.071 69.9279C281.407 70.648 281.599 71.296 281.647 71.872C281.743 72.4 281.791 73.216 281.791 74.32V99.808C281.791 100.864 281.743 101.68 281.647 102.256C281.599 102.784 281.383 103.384 280.999 104.056C280.279 105.304 278.431 105.928 275.455 105.928C272.527 105.928 270.727 105.352 270.055 104.2C269.575 103.384 269.335 102.4 269.335 101.248C269.143 101.584 268.711 102.064 268.039 102.688C267.367 103.312 266.719 103.84 266.095 104.272C264.463 105.328 262.687 105.856 260.767 105.856Z" fill="#4f46e5"/>
<path d="M313.359 68.488C314.271 68.776 315.015 69.28 315.591 70C316.215 70.672 316.527 71.776 316.527 73.312C316.527 74.848 316.071 76.528 315.159 78.352C314.247 80.176 312.927 81.088 311.199 81.088C310.335 81.088 309.495 80.896 308.679 80.512C307.911 80.128 306.879 79.936 305.583 79.936C304.287 79.936 303.063 80.392 301.911 81.304C300.807 82.216 300.255 83.32 300.255 84.616V99.736C300.255 100.84 300.207 101.68 300.111 102.256C300.063 102.784 299.847 103.408 299.463 104.128C298.743 105.376 296.871 106 293.847 106C291.543 106 289.887 105.592 288.879 104.776C288.111 104.104 287.679 103.072 287.583 101.68C287.583 101.2 287.583 100.504 287.583 99.592V74.32C287.583 73.216 287.607 72.4 287.655 71.872C287.751 71.296 287.967 70.672 288.303 70C288.975 68.704 290.847 68.056 293.919 68.056C296.799 68.056 298.599 68.608 299.319 69.712C299.847 70.48 300.111 71.272 300.111 72.088C300.351 71.752 300.687 71.344 301.119 70.864C301.599 70.384 302.583 69.736 304.071 68.92C305.559 68.104 306.855 67.696 307.959 67.696C309.111 67.696 310.071 67.768 310.839 67.912C311.607 68.008 312.447 68.2 313.359 68.488Z" fill="#4f46e5"/>
<path d="M319.371 102.616C318.459 102.04 318.003 101.128 318.003 99.88C318.003 98.632 318.915 96.736 320.739 94.192C321.267 93.376 322.107 92.968 323.259 92.968C324.459 92.968 326.067 93.568 328.083 94.768C330.099 95.92 331.923 96.496 333.555 96.496C336.483 96.496 337.947 95.92 337.947 94.768C337.947 93.856 336.339 93.184 333.123 92.752C330.099 92.32 327.099 91.192 324.123 89.368C322.731 88.504 321.579 87.16 320.667 85.336C319.755 83.464 319.299 81.256 319.299 78.712C319.299 71.128 324.507 67.336 334.923 67.336C338.331 67.336 341.835 68.152 345.435 69.784C347.115 70.552 347.955 71.512 347.955 72.664C347.955 73.816 347.427 75.232 346.371 76.912C345.315 78.592 344.235 79.432 343.131 79.432C342.555 79.432 341.475 79.072 339.891 78.352C338.355 77.632 336.675 77.272 334.851 77.272C332.019 77.272 330.603 77.8 330.603 78.856C330.603 80.296 332.235 81.232 335.499 81.664C338.667 82 341.739 82.912 344.715 84.4C346.107 85.072 347.259 86.248 348.171 87.928C349.131 89.56 349.611 91.624 349.611 94.12C349.611 96.616 349.131 98.752 348.171 100.528C347.259 102.256 345.963 103.552 344.283 104.416C341.211 105.904 337.347 106.648 332.691 106.648C328.083 106.648 323.643 105.304 319.371 102.616Z" fill="#4f46e5"/>
<path d="M390.885 82.528C390.885 85.456 390.141 87.64 388.653 89.08C387.213 90.472 385.605 91.168 383.829 91.168H366.765C366.765 92.512 367.557 93.64 369.141 94.552C370.725 95.464 372.309 95.92 373.893 95.92C376.677 95.92 378.861 95.632 380.445 95.056L381.237 94.768C382.389 94.24 383.349 93.976 384.117 93.976C385.653 93.976 386.974 95.056 388.077 97.216C388.701 98.512 389.013 99.616 389.013 100.528C389.013 104.8 383.901 106.936 373.677 106.936C370.125 106.936 366.957 106.336 364.173 105.136C361.437 103.888 359.301 102.256 357.765 100.24C354.741 96.352 353.229 92.008 353.229 87.208C353.229 81.16 355.173 76.336 359.061 72.736C362.997 69.088 367.893 67.264 373.749 67.264C380.421 67.264 385.317 69.616 388.437 74.32C390.069 76.816 390.885 79.552 390.885 82.528ZM375.693 84.616C377.517 84.616 378.429 83.848 378.429 82.312C378.429 81.208 377.997 80.32 377.133 79.648C376.317 78.976 375.117 78.64 373.533 78.64C371.997 78.64 370.461 79.288 368.925 80.584C367.389 81.832 366.621 83.176 366.621 84.616H375.693Z" fill="#4f46e5"/>
<path d="M428.559 92.176L429.855 91.24C431.487 90.28 432.639 89.8 433.311 89.8C434.799 89.8 436.407 91.144 438.135 93.832C439.191 95.512 439.719 96.856 439.719 97.864C439.719 98.872 439.383 99.712 438.711 100.384C438.087 101.056 437.343 101.656 436.479 102.184C435.615 102.712 434.775 103.216 433.959 103.696C433.191 104.176 431.583 104.8 429.135 105.568C426.687 106.336 424.311 106.72 422.007 106.72C419.751 106.72 417.447 106.432 415.095 105.856C412.791 105.232 410.391 104.224 407.895 102.832C405.447 101.392 403.239 99.664 401.271 97.648C399.303 95.584 397.671 92.968 396.375 89.8C395.127 86.584 394.503 83.104 394.503 79.36C394.503 75.616 395.127 72.232 396.375 69.208C397.623 66.136 399.207 63.6159 401.127 61.6479C403.095 59.6319 405.327 57.952 407.823 56.608C412.527 54.016 417.255 52.72 422.007 52.72C424.263 52.72 426.543 53.08 428.847 53.8C431.199 54.472 432.975 55.168 434.175 55.888L435.903 56.896C436.767 57.424 437.439 57.856 437.919 58.192C439.167 59.2 439.791 60.352 439.791 61.6479C439.791 62.896 439.287 64.216 438.279 65.608C436.407 68.2 434.727 69.496 433.239 69.496C432.375 69.496 431.151 68.968 429.567 67.912C427.551 66.28 424.863 65.464 421.503 65.464C418.383 65.464 415.311 66.544 412.287 68.704C410.847 69.76 409.647 71.248 408.687 73.168C407.727 75.088 407.247 77.272 407.247 79.72C407.247 82.12 407.727 84.28 408.687 86.2C409.647 88.12 410.871 89.632 412.359 90.736C415.287 92.848 418.335 93.904 421.503 93.904C422.991 93.904 424.383 93.712 425.679 93.328C427.023 92.944 427.983 92.56 428.559 92.176Z" fill="#4f46e5"/>
<path d="M444.45 56.536C444.45 55.432 444.474 54.616 444.522 54.088C444.618 53.512 444.834 52.864 445.17 52.144C445.842 50.848 447.714 50.2 450.786 50.2C453.714 50.2 455.538 50.848 456.258 52.144C456.642 52.864 456.858 53.512 456.906 54.088C457.002 54.664 457.05 55.504 457.05 56.608V89.944C457.05 91.672 457.194 92.776 457.482 93.256C457.77 93.688 458.394 93.904 459.354 93.904C460.362 93.904 461.034 93.952 461.37 94.048C461.706 94.096 462.114 94.288 462.594 94.624C463.554 95.248 464.034 96.952 464.034 99.736C464.034 102.76 463.554 104.608 462.594 105.28C461.346 106.144 458.37 106.288 453.666 105.712C449.97 105.232 447.57 104.008 446.466 102.04C445.122 99.688 444.45 95.944 444.45 90.808V56.536Z" fill="#4f46e5"/>
<path d="M466.925 87.064C466.925 81.304 468.941 76.552 472.973 72.808C477.005 69.064 481.613 67.192 486.797 67.192C491.981 67.192 496.565 69.064 500.549 72.808C504.533 76.504 506.525 81.232 506.525 86.992C506.525 90.976 505.493 94.528 503.429 97.648C501.365 100.72 498.845 103 495.869 104.488C492.941 105.928 489.893 106.648 486.725 106.648C483.557 106.648 480.485 105.88 477.509 104.344C474.533 102.76 472.013 100.456 469.949 97.432C467.933 94.36 466.925 90.904 466.925 87.064ZM481.973 92.248C483.509 93.4 485.069 93.976 486.653 93.976C488.237 93.976 489.821 93.376 491.405 92.176C492.989 90.976 493.781 89.2 493.781 86.848C493.781 84.496 493.037 82.744 491.549 81.592C490.061 80.44 488.453 79.864 486.725 79.864C484.997 79.864 483.389 80.464 481.901 81.664C480.413 82.864 479.669 84.64 479.669 86.992C479.669 89.296 480.437 91.048 481.973 92.248Z" fill="#4f46e5"/>
<path d="M528.025 105.856C523.177 105.856 519.145 104.032 515.929 100.384C512.761 96.688 511.177 92.2 511.177 86.92V74.32C511.177 73.168 511.201 72.328 511.249 71.8C511.345 71.272 511.561 70.648 511.897 69.9279C512.569 68.632 514.441 67.984 517.513 67.984C520.873 67.984 522.841 68.896 523.417 70.72C523.705 71.488 523.849 72.712 523.849 74.392V86.992C523.849 88.96 524.401 90.496 525.505 91.6C526.657 92.704 528.169 93.256 530.041 93.256C531.961 93.256 533.497 92.68 534.649 91.528C535.849 90.376 536.449 88.864 536.449 86.992V74.248C536.449 73.144 536.473 72.328 536.521 71.8C536.617 71.224 536.857 70.576 537.241 69.856C537.865 68.608 539.713 67.984 542.785 67.984C545.809 67.984 547.657 68.632 548.329 69.9279C548.665 70.648 548.857 71.296 548.905 71.872C549.001 72.4 549.049 73.216 549.049 74.32V99.808C549.049 100.864 549.001 101.68 548.905 102.256C548.857 102.784 548.641 103.384 548.257 104.056C547.537 105.304 545.689 105.928 542.713 105.928C539.785 105.928 537.985 105.352 537.313 104.2C536.833 103.384 536.593 102.4 536.593 101.248C536.401 101.584 535.969 102.064 535.297 102.688C534.625 103.312 533.977 103.84 533.353 104.272C531.721 105.328 529.945 105.856 528.025 105.856Z" fill="#4f46e5"/>
<path d="M580.257 52.288C580.641 51.568 581.289 51.064 582.201 50.776C583.113 50.488 584.313 50.3439 585.801 50.3439C587.337 50.3439 588.561 50.488 589.473 50.776C590.385 51.064 591.009 51.568 591.345 52.288C591.729 53.008 591.945 53.656 591.993 54.232C592.089 54.76 592.137 55.576 592.137 56.6799V99.664C592.137 100.768 592.089 101.608 591.993 102.184C591.945 102.712 591.729 103.312 591.345 103.984C590.625 105.28 588.585 105.928 585.225 105.928C581.913 105.928 580.065 104.752 579.681 102.4C577.665 104.704 574.857 105.856 571.257 105.856C566.937 105.856 563.001 103.984 559.449 100.24C555.897 96.448 554.121 92.056 554.121 87.064C554.121 82.024 555.897 77.608 559.449 73.816C563.049 70.024 566.985 68.128 571.257 68.128C574.809 68.128 577.569 69.328 579.537 71.728V56.608C579.537 55.504 579.561 54.688 579.609 54.16C579.705 53.584 579.921 52.9599 580.257 52.288ZM568.593 91.384C569.841 92.68 571.353 93.328 573.129 93.328C574.905 93.328 576.369 92.68 577.521 91.384C578.721 90.088 579.321 88.672 579.321 87.136C579.321 85.552 578.745 84.088 577.593 82.744C576.489 81.4 574.977 80.728 573.057 80.728C571.137 80.728 569.601 81.4 568.449 82.744C567.297 84.04 566.721 85.48 566.721 87.064C566.721 88.648 567.345 90.088 568.593 91.384Z" fill="#4f46e5"/>
</svg>
